<?xml version="1.0" standalone="no"?>
<!DOCTYPE svg PUBLIC "-//W3C//DTD SVG 20010904//EN"
 "http://www.w3.org/TR/2001/REC-SVG-20010904/DTD/svg10.dtd">
<svg version="1.0" xmlns="http://www.w3.org/2000/svg"
 width="700.000000pt" height="700.000000pt" viewBox="0 0 700.000000 700.000000"
 preserveAspectRatio="xMidYMid meet">
<metadata>
Created by potrace 1.14, written by Peter Selinger 2001-2017
</metadata>
<g transform="translate(0.000000,700.000000) scale(0.100000,-0.100000)"
fill="#000000" stroke="none">
<path d="M1698 6004 c-48 -25 -58 -60 -58 -194 l0 -120 -303 0 c-270 0 -312
-2 -381 -20 -189 -48 -333 -189 -393 -385 -17 -57 -18 -148 -18 -2105 0 -1696
2 -2054 14 -2100 22 -91 69 -177 132 -245 72 -77 134 -118 231 -153 l73 -27
2490 0 c1988 0 2501 3 2544 13 184 43 339 189 402 377 l24 70 3 2000 c2 1254
-1 2030 -7 2081 -29 240 -192 424 -425 479 -46 11 -135 15 -363 15 l-303 0 0
120 c0 89 -4 129 -15 150 -17 32 -61 60 -95 60 -34 0 -78 -28 -95 -60 -11 -21
-15 -61 -15 -150 l0 -120 -765 0 -765 0 0 120 c0 89 -4 129 -15 150 -17 32
-61 60 -95 60 -34 0 -78 -28 -95 -60 -11 -21 -15 -61 -15 -150 l0 -120 -765 0
-765 0 0 120 c0 135 -10 169 -60 195 -36 19 -67 19 -102 -1z m4532 -2944 l0
-1090 -511 0 -511 0 -34 -34 -34 -34 0 -511 0 -511 -2067 2 -2068 3 -50 24
c-63 32 -124 92 -155 156 l-25 50 -3 1518 -2 1517 2730 0 2730 0 0 -1090z m-2
-1627 c-3 -314 -3 -319 -27 -368 -32 -63 -99 -131 -159 -158 -45 -21 -63 -22
-364 -25 l-318 -3 0 435 0 436 436 0 435 0 -3 -317z"/>
<path d="M2124 3590 c-255 -35 -472 -214 -557 -459 -106 -303 21 -645 300
-809 71 -42 184 -81 255 -89 53 -5 59 -8 64 -32 46 -209 178 -378 371 -475
177 -89 402 -92 585 -8 134 62 258 181 321 309 17 34 34 63 37 63 3 0 23 -35
44 -77 47 -90 160 -210 248 -261 124 -73 283 -107 430 -91 288 32 532 253 592
540 5 24 11 27 65 32 206 22 418 173 515 367 60 119 80 214 74 344 -23 487
-533 793 -974 585 -130 -62 -253 -181 -316 -309 l-34 -68 -39 77 c-57 112
-181 234 -295 289 -113 56 -194 75 -310 75 -116 0 -197 -19 -310 -75 -114 -55
-238 -177 -295 -289 l-39 -76 -31 62 c-131 260 -419 414 -701 375z m199 -235
c130 -34 238 -119 295 -232 38 -74 51 -133 29 -133 -8 0 -52 -19 -98 -41 -68
-34 -102 -60 -174 -133 -98 -98 -150 -185 -179 -300 -9 -32 -17 -60 -18 -62
-2 -1 -25 2 -53 7 -235 44 -404 285 -365 520 45 268 306 441 563 374z m1268 5
c128 -24 259 -125 317 -244 38 -78 49 -126 29 -126 -26 0 -171 -78 -228 -123
-65 -52 -149 -160 -181 -234 -13 -29 -25 -53 -28 -53 -3 0 -15 24 -28 53 -32
73 -115 181 -181 234 -55 44 -202 123 -229 123 -40 0 39 167 115 243 111 111
258 156 414 127z m1291 -1 c234 -49 394 -281 358 -516 -29 -187 -183 -348
-365 -382 -52 -10 -65 -4 -65 31 0 33 -51 154 -91 215 -62 94 -172 193 -269
242 -45 22 -89 41 -97 41 -22 0 -9 59 29 133 90 180 299 278 500 236z m-2258
-651 c-31 -62 -85 -127 -133 -163 -27 -19 -52 -35 -55 -35 -10 0 34 82 67 124
29 36 113 105 130 106 4 0 0 -15 -9 -32z m535 -24 c41 -35 121 -145 121 -166
0 -15 -41 12 -93 61 -43 40 -107 132 -107 154 0 12 30 -7 79 -49z m741 5 c-12
-23 -44 -65 -70 -93 -50 -52 -110 -95 -110 -77 0 23 90 139 139 179 29 24 55
41 58 39 2 -3 -5 -24 -17 -48z m521 15 c55 -40 96 -89 128 -152 l22 -43 -30
15 c-44 23 -123 108 -155 165 -15 28 -24 51 -20 51 3 0 28 -16 55 -36z m-1425
-253 c73 -79 148 -132 243 -172 78 -33 78 -36 26 -145 -92 -190 -314 -292
-518 -239 -129 34 -247 126 -300 236 -35 71 -46 129 -24 129 8 0 52 19 98 42
114 57 239 180 295 290 l39 77 39 -75 c21 -41 67 -105 102 -143z m1233 66 c52
-77 163 -172 251 -216 45 -22 89 -41 97 -41 22 0 11 -58 -24 -129 -53 -110
-171 -202 -300 -236 -204 -53 -426 49 -518 239 -52 109 -52 112 26 145 146 61
276 181 346 316 l38 74 27 -54 c15 -30 40 -74 57 -98z"/>
</g>
</svg>
